<svg width="38" height="30" viewBox="0 0 38 30" fill="none" xmlns="http://www.w3.org/2000/svg">
<path d="M1 17C3.00029 16 4.12274 14.6 8.92274 17C13.7227 19.4 16.5894 18 18.4227 17C20.423 16 21.5455 14.6 26.3455 17C31.1455 19.4 34.1667 16.9847 36 15.9847M21.0009 22H1V21.375M21.0009 22L23.5723 24M21.0009 22V21.4924M23.5723 24L25.5009 25.5L27.4294 24M23.5723 24H21.5009H3.42274C-0.977256 24 2.64149 27.6667 5.00087 29.5C7.80087 29.5 25.0894 29.5 32.9227 29.5C35.2561 27.8333 39.3446 24 35.3446 24H27.4294M27.4294 24L30.0009 22H36V21.375M29.9227 21.9847V21.4847M1 20.75H20.5H30.0009H36M1 20.75V20.125M1 20.75V21.375M36 20.75V20.125M36 20.75V21.375M36 20.125V19.5H1V20.125M36 20.125H1M1 21.375L21.0009 21.4924M21.0009 21.4924V20.9847H29.9227V21.4847M29.9227 21.4847L36 21.375M1 13.5C2.5 9.66667 7.99201 1 18 1C30.0009 0.999994 35.5 10.5 36 13.5H1Z" stroke="black"/>
<path d="M14.2158 5C13.5884 4.4 14.4772 4.08333 15 4V4.25C15 4.33333 14.8432 4.6 14.2158 5Z" stroke="black"/>
<path d="M16.2158 8C15.5884 7.4 16.4772 7.08333 17 7V7.25C17 7.33333 16.8432 7.6 16.2158 8Z" stroke="black"/>
<path d="M17.7842 10C18.4116 10.6 17.5228 10.9167 17 11V10.75C17 10.6667 17.1568 10.4 17.7842 10Z" stroke="black"/>
<path d="M7.78422 10C8.41159 10.6 7.52281 10.9167 7 11V10.75C7 10.6667 7.15684 10.4 7.78422 10Z" stroke="black"/>
<path d="M21.2158 7C20.5884 6.4 21.4772 6.08333 22 6V6.25C22 6.33333 21.8432 6.6 21.2158 7Z" stroke="black"/>
<path d="M23.2158 10C22.5884 9.4 23.4772 9.08333 24 9V9.25C24 9.33333 23.8432 9.6 23.2158 10Z" stroke="black"/>
<path d="M12.2158 10C11.5884 9.4 12.4772 9.08333 13 9V9.25C13 9.33333 12.8432 9.6 12.2158 10Z" stroke="black"/>
<path d="M26.7842 7C27.4116 6.4 26.5228 6.08333 26 6V6.25C26 6.33333 26.1568 6.6 26.7842 7Z" stroke="black"/>
<path d="M10.2158 5C9.58841 5.6 10.4772 5.91667 11 6V5.75C11 5.66667 10.8432 5.4 10.2158 5Z" stroke="black"/>
<path d="M19.7842 4C20.4116 3.4 19.5228 3.08333 19 3V3.25C19 3.33333 19.1568 3.6 19.7842 4Z" stroke="black"/>
<path d="M27.7842 11C28.4116 10.4 27.5228 10.0833 27 10V10.25C27 10.3333 27.1568 10.6 27.7842 11Z" stroke="black"/>
<path d="M31.7842 10C32.4116 9.4 31.5228 9.08333 31 9V9.25C31 9.33333 31.1568 9.6 31.7842 10Z" stroke="black"/>
</svg>
