<svg width="142" height="142" viewBox="0 0 142 142" fill="none" xmlns="http://www.w3.org/2000/svg">
<rect width="142" height="142" rx="15" fill="#212121"/>
<path d="M44 67.7226V15.1C44 15.0448 43.9552 15 43.9 15H24.1C24.0448 15 24 15.0448 24 15.1V70.5V125.9C24 125.955 24.0448 126 24.1 126H43.9C43.9552 126 44 125.955 44 125.9V82.5719M34 126V70.5V15M108 126V70.5V15" stroke="white" stroke-width="7"/>
<path d="M98 67.7226V15.1C98 15.0448 98.0448 15 98.1 15H117.9C117.955 15 118 15.0448 118 15.1V70.5V125.9C118 125.955 117.955 126 117.9 126H98.1C98.0448 126 98 125.955 98 125.9V82.5719" stroke="white" stroke-width="7"/>
<path d="M40.5 71H101.5M40.5 81H101.5" stroke="white" stroke-width="7"/>
</svg>
