<svg width="102" height="119" viewBox="0 0 102 119" fill="none" xmlns="http://www.w3.org/2000/svg">
<path d="M24 56.7226V4.1C24 4.04477 23.9552 4 23.9 4H4.1C4.04477 4 4 4.04477 4 4.1V59.5V114.9C4 114.955 4.04477 115 4.1 115H23.9C23.9552 115 24 114.955 24 114.9V71.5719M14 115V59.5V4M88 115V59.5V4" stroke="white" stroke-width="7"/>
<path d="M78 56.7226V4.1C78 4.04477 78.0448 4 78.1 4H97.9C97.9552 4 98 4.04477 98 4.1V59.5V114.9C98 114.955 97.9552 115 97.9 115H78.1C78.0448 115 78 114.955 78 114.9V71.5719" stroke="white" stroke-width="7"/>
<path d="M20.5 60H81.5M20.5 70H81.5" stroke="white" stroke-width="7"/>
</svg>
